o Plane.025_Plane.026
v -0.615221 -0 0.906296
v -0.613941 -0 0.909214
v -0.614846 -0 0.908359
v 0.613941 -0 0.909214
v 0.615221 -0 0.906296
v 0.614846 -0 0.908359
v -0.613941 -0 -0.067052
v -0.615221 -0 -0.064134
v -0.614846 -0 -0.066197
v 0.615221 -0 -0.064134
v 0.613941 -0 -0.067052
v 0.614846 -0 -0.066197
v -0.615221 -0.062303 -0.064134
v -0.613941 -0.062303 -0.067052
v -0.613941 -0.065221 -0.064134
v -0.614846 -0.062303 -0.066198
v -0.61468 -0.063988 -0.065819
v -0.613941 -0.064367 -0.066198
v -0.614846 -0.064367 -0.064134
v -0.615221 -0.062303 0.906296
v -0.613941 -0.065221 0.906296
v -0.613941 -0.062303 0.909214
v -0.614846 -0.064367 0.906296
v -0.61468 -0.063988 0.907981
v -0.613941 -0.064367 0.908359
v -0.614846 -0.062303 0.908359
v 0.613941 -0.062303 0.909214
v 0.613941 -0.065221 0.906296
v 0.615221 -0.062303 0.906296
v 0.613941 -0.064367 0.908359
v 0.61468 -0.063988 0.907981
v 0.614846 -0.064367 0.906296
v 0.614846 -0.062303 0.908359
v 0.615221 -0.062303 -0.064134
v 0.613941 -0.065221 -0.064134
v 0.613941 -0.062303 -0.067052
v 0.614846 -0.064367 -0.064134
v 0.61468 -0.063988 -0.065819
v 0.613941 -0.064367 -0.066198
v 0.614846 -0.062303 -0.066198
vt 0 0
vt 0 0
vt 0 0
vt 0 0
vt 0 0
vt 0 0
vt 0 0
vt 0 0
vt 0 0
vt 0 0
vt 0 0
vt 0 0
vt 0 0
vt 0 0
vt 0 0
vt 0 0
vt 0 0
vt 0 0
vt 0 0
vt 0 0
vt 0 0
vt 0 0
vt 0 0
vt 0 0
vt 0 0
vt 0 0
vt 0 0
vt 0 0
vt 0 0
vt 0 0
vt 0 0
vt 0 0
vt 0 0
vt 0 0
vt 0 0
vt 0 0
vt 0 0
vt 0 0
vt 0 0
vt 0 0
vn 0 -1 0
vn 1 0 0
vn 0 0 -1
vn 0 0 1
vn -0.9752 -0.1566 -0.1566
vn -0.6167 -0.2706 -0.7392
vn -0.6168 -0.7392 -0.2706
vn -0.9752 -0.1566 0.1566
vn -0.6167 -0.7392 0.2706
vn -0.6168 -0.2705 0.7392
vn 0.6168 -0.2705 0.7392
vn 0.6168 -0.7392 0.2706
vn 0.9752 -0.1566 0.1566
vn 0.9752 -0.1566 -0.1566
vn 0.6168 -0.7392 -0.2706
vn 0.6167 -0.2706 -0.7392
vn -0.6865 -0.7271 0
vn -0.9839 -0.1788 0
vn 0 -0.9239 0.3827
vn 0 -0.3827 0.9239
vn 0.6865 -0.7271 0
vn 0.9839 -0.1788 0
vn 0 -0.9239 -0.3827
vn 0 -0.3827 -0.9239
vn -0.6865 0 -0.7271
vn -0.9839 0 -0.1788
vn 0.6865 0 -0.7271
vn 0.9839 0 -0.1788
vn 0.6865 0 0.7271
vn 0.9839 0 0.1788
vn -0.6865 0 0.7271
vn -0.9839 0 0.1788
vn -1 0 0
f 21/1/1 15/2/1 35/3/1 28/4/1
f 5/5/2 29/6/2 34/7/2 10/8/2
f 11/9/3 36/10/3 14/11/3 7/12/3
f 2/13/4 22/14/4 27/15/4 4/16/4
f 13/17/5 16/18/5 17/19/5 19/20/5
f 14/11/6 18/21/6 17/19/6 16/18/6
f 15/2/7 19/20/7 17/19/7 18/21/7
f 20/22/8 23/23/8 24/24/8 26/25/8
f 21/1/9 25/26/9 24/24/9 23/23/9
f 22/14/10 26/25/10 24/24/10 25/26/10
f 27/15/11 30/27/11 31/28/11 33/29/11
f 28/4/12 32/30/12 31/28/12 30/27/12
f 29/6/13 33/29/13 31/28/13 32/30/13
f 34/7/14 37/31/14 38/32/14 40/33/14
f 35/3/15 39/34/15 38/32/15 37/31/15
f 36/10/16 40/33/16 38/32/16 39/34/16
f 15/2/17 21/1/17 23/23/17 19/20/17
f 19/20/18 23/23/18 20/22/18 13/17/18
f 21/1/19 28/4/19 30/27/19 25/26/19
f 25/26/20 30/27/20 27/15/20 22/14/20
f 28/4/21 35/3/21 37/31/21 32/30/21
f 32/30/22 37/31/22 34/7/22 29/6/22
f 35/3/23 15/2/23 18/21/23 39/34/23
f 39/34/24 18/21/24 14/11/24 36/10/24
f 7/12/25 14/11/25 16/18/25 9/35/25
f 9/35/26 16/18/26 13/17/26 8/36/26
f 36/10/27 11/9/27 12/37/27 40/33/27
f 40/33/28 12/37/28 10/8/28 34/7/28
f 4/16/29 27/15/29 33/29/29 6/38/29
f 6/38/30 33/29/30 29/6/30 5/5/30
f 22/14/31 2/13/31 3/39/31 26/25/31
f 26/25/32 3/39/32 1/32 20/22/32
f 8/36 13/17 20/22 1
