o Plane.006_Plane.007
v -0.616553 -0.398816 -0.069971
v -0.616553 -0.395898 -0.067052
v -0.617833 -0.395898 -0.069971
v -0.616553 -0.397961 -0.067907
v -0.617292 -0.397583 -0.068286
v -0.617458 -0.395898 -0.067907
v -0.617458 -0.397961 -0.069971
v 0.616553 -0.398816 -0.069971
v 0.617833 -0.395898 -0.069971
v 0.616553 -0.395898 -0.067052
v 0.617458 -0.397961 -0.069971
v 0.617292 -0.397583 -0.068286
v 0.617458 -0.395898 -0.067907
v 0.616553 -0.397961 -0.067907
v -0.616553 0.899041 -0.069971
v -0.617833 0.896123 -0.069971
v -0.616553 0.896123 -0.067052
v -0.617458 0.898186 -0.069971
v -0.617292 0.897808 -0.068286
v -0.617458 0.896123 -0.067907
v -0.616553 0.898186 -0.067907
v 0.616553 0.899041 -0.069971
v 0.616553 0.896123 -0.067052
v 0.617833 0.896123 -0.069971
v 0.616553 0.898186 -0.067907
v 0.617292 0.897808 -0.068286
v 0.617458 0.896123 -0.067907
v 0.617458 0.898186 -0.069971
v 0.616553 -0.398816 -0.153442
v 0.616553 -0.395898 -0.156361
v 0.617833 -0.395898 -0.153442
v 0.616553 -0.397961 -0.155506
v 0.617292 -0.397583 -0.155127
v 0.617458 -0.395898 -0.155506
v 0.617458 -0.397961 -0.153442
v -0.616553 -0.398816 -0.153442
v -0.617833 -0.395898 -0.153442
v -0.616553 -0.395898 -0.156361
v -0.617458 -0.397961 -0.153442
v -0.617292 -0.397583 -0.155127
v -0.617458 -0.395898 -0.155506
v -0.616553 -0.397961 -0.155506
v 0.616553 0.899041 -0.153442
v 0.617833 0.896123 -0.153442
v 0.616553 0.896123 -0.156361
v 0.617458 0.898186 -0.153442
v 0.617292 0.897808 -0.155127
v 0.617458 0.896123 -0.155506
v 0.616553 0.898186 -0.155506
v -0.616553 0.899041 -0.153442
v -0.616553 0.896123 -0.156361
v -0.617833 0.896123 -0.153442
v -0.616553 0.898186 -0.155506
v -0.617292 0.897808 -0.155127
v -0.617458 0.896123 -0.155506
v -0.617458 0.898186 -0.153442
vt 3.11328 2.41705
vt 3.02381 2.41705
vt 3.02381 0.00611
vt 3.11328 0.00611
vt 3.12071 0.00611
vt 3.21018 0.00611
vt 3.21018 2.41705
vt 3.12071 2.41705
vt 0.003535 0.006111
vt 3.01637 0.00611
vt 3.01637 2.41705
vt 0.003535 2.41705
vt 3.01634 4.85389
vt 3.01634 5.00965
vt 0.003535 5.00965
vt 0.003535 4.85389
vt 0.003535 4.84094
vt 0.003535 2.43
vt 3.01637 2.43
vt 3.01637 4.84094
vt 0.003535 5.17837
vt 0.003535 5.18381
vt 0.001729 5.18381
vt 0.000407 5.17837
vt 0.000407 0.00611
vt 0.000407 0.002967
vt 0.003535 0.000665
vt 3.11328 0.000664
vt 3.11508 0.000664
vt 3.1164 0.00611
vt 3.01634 5.17837
vt 3.01947 5.17837
vt 3.01947 5.18151
vt 3.01634 5.18381
vt 3.11758 0.00611
vt 3.11758 0.002966
vt 3.12071 0.000664
vt 3.01637 0.000664
vt 3.01818 0.000664
vt 3.0195 0.00611
vt 0.000407 4.85389
vt 0.000407 4.85075
vt 0.003535 4.84844
vt 3.1164 2.41705
vt 3.1164 2.4202
vt 3.11327 2.4225
vt 0.003535 2.4225
vt 0.001729 2.4225
vt 0.000407 2.41705
vt 3.01634 4.84844
vt 3.01815 4.84844
vt 3.01947 4.85389
vt 3.0195 2.41705
vt 3.0195 2.4202
vt 3.01637 2.4225
vt 3.12071 2.4225
vt 3.11891 2.4225
vt 3.11758 2.41706
vt 3.01634 5.0226
vt 3.01634 5.01716
vt 3.01815 5.01716
vt 3.01947 5.0226
vt 3.0195 4.84094
vt 3.0195 4.84409
vt 3.01637 4.84639
vt 3.21018 0.000664
vt 3.21198 0.000664
vt 3.21331 0.00611
vt 0.003535 5.02261
vt 0.000407 5.02261
vt 0.000407 5.01946
vt 0.003535 5.01716
vt 3.02068 0.00611
vt 3.02068 0.002966
vt 3.02381 0.000664
vt 0.003535 4.84639
vt 0.001729 4.84639
vt 0.000407 4.84094
vt 3.01947 5.00965
vt 3.01947 5.01279
vt 3.01634 5.0151
vt 3.2133 2.41705
vt 3.2133 2.4202
vt 3.21018 2.4225
vt 3.01637 2.42456
vt 3.01818 2.42456
vt 3.0195 2.43
vt 0.003535 5.0151
vt 0.001729 5.0151
vt 0.000407 5.00965
vt 0.000407 2.43
vt 0.000407 2.42686
vt 0.003535 2.42456
vt 3.02381 2.4225
vt 3.022 2.4225
vt 3.02068 2.41705
vn -1 0 0
vn 1 0 0
vn 0 0 1
vn 0 1 0
vn 0 0 -1
vn -0.6167 -0.7392 0.2706
vn -0.6167 -0.2706 0.7392
vn -0.9752 -0.1566 0.1566
vn 0.6167 -0.7392 0.2706
vn 0.9752 -0.1566 0.1566
vn 0.6167 -0.2706 0.7392
vn -0.6167 0.7392 0.2706
vn -0.9752 0.1566 0.1566
vn -0.6167 0.2706 0.7392
vn 0.6167 0.7392 0.2705
vn 0.6168 0.2706 0.7392
vn 0.9752 0.1566 0.1566
vn 0.6168 -0.7392 -0.2706
vn 0.6167 -0.2706 -0.7392
vn 0.9752 -0.1566 -0.1566
vn -0.6168 -0.7392 -0.2706
vn -0.9752 -0.1566 -0.1566
vn -0.6167 -0.2706 -0.7392
vn 0.6167 0.7392 -0.2706
vn 0.9752 0.1566 -0.1566
vn 0.6167 0.2706 -0.7392
vn -0.6167 0.7392 -0.2706
vn -0.6168 0.2706 -0.7392
vn -0.9752 0.1566 -0.1566
vn -0 -0.3827 0.9239
vn -0 -0.9239 0.3827
vn 0 0.9239 0.3827
vn 0 0.3827 0.9239
vn -0.9839 0 0.1788
vn -0.6865 0 0.7271
vn 0.9839 -0 0.1788
vn 0.6865 0 0.7271
vn 0 -0.9239 -0.3827
vn 0 -0.3827 -0.9239
vn -0 0.3827 -0.9239
vn -0 0.9239 -0.3827
vn -0.6865 0 -0.7271
vn -0.9839 0 -0.1788
vn 0.6865 -0 -0.7271
vn 0.9839 0 -0.1788
vn -0.9839 -0.1788 0
vn -0.6866 -0.7271 0
vn -0.9839 0.1788 0
vn -0.6865 0.7271 0
vn 0.6866 -0.7271 0
vn 0.9839 -0.1788 0
vn 0.9839 0.1788 0
vn 0.6865 0.7271 0
vn 0 -1 0
f 16/1/1 52/2/1 37/3/1 3/4/1
f 9/5/2 31/6/2 44/7/2 24/8/2
f 2/9/3 10/10/3 23/11/3 17/12/3
f 22/13/4 43/14/4 50/15/4 15/16/4
f 38/17/5 51/18/5 45/19/5 30/20/5
f 1/21/6 4/22/6 5/23/6 7/24/6
f 2/9/7 6/25/7 5/26/7 4/27/7
f 3/4/8 7/28/8 5/29/8 6/30/8
f 8/31/9 11/32/9 12/33/9 14/34/9
f 9/5/10 13/35/10 12/36/10 11/37/10
f 10/10/11 14/38/11 12/39/11 13/40/11
f 15/16/12 18/41/12 19/42/12 21/43/12
f 16/1/13 20/44/13 19/45/13 18/46/13
f 17/12/14 21/47/14 19/48/14 20/49/14
f 22/13/15 25/50/15 26/51/15 28/52/15
f 23/11/16 27/53/16 26/54/16 25/55/16
f 24/8/17 28/56/17 26/57/17 27/58/17
f 29/59/18 32/60/18 33/61/18 35/62/18
f 30/20/19 34/63/19 33/64/19 32/65/19
f 31/6/20 35/66/20 33/67/20 34/68/20
f 36/69/21 39/70/21 40/71/21 42/72/21
f 37/3/22 41/73/22 40/74/22 39/75/22
f 38/17/23 42/76/23 40/77/23 41/78/23
f 43/14/24 46/79/24 47/80/24 49/81/24
f 44/7/25 48/82/25 47/83/25 46/84/25
f 45/19/26 49/85/26 47/86/26 48/87/26
f 50/15/27 53/88/27 54/89/27 56/90/27
f 51/18/28 55/91/28 54/92/28 53/93/28
f 52/2/29 56/94/29 54/95/29 55/96/29
f 10/10/30 2/9/30 4/27/30 14/38/30
f 14/34/31 4/22/31 1/21/31 8/31/31
f 22/13/32 15/16/32 21/43/32 25/50/32
f 25/55/33 21/47/33 17/12/33 23/11/33
f 16/1/34 3/4/34 6/30/34 20/44/34
f 20/49/35 6/25/35 2/9/35 17/12/35
f 9/5/36 24/8/36 27/58/36 13/35/36
f 13/40/37 27/53/37 23/11/37 10/10/37
f 29/59/38 36/69/38 42/72/38 32/60/38
f 32/65/39 42/76/39 38/17/39 30/20/39
f 45/19/40 51/18/40 53/93/40 49/85/40
f 49/81/41 53/88/41 50/15/41 43/14/41
f 51/18/42 38/17/42 41/78/42 55/91/42
f 55/96/43 41/73/43 37/3/43 52/2/43
f 30/20/44 45/19/44 48/87/44 34/63/44
f 34/68/45 48/82/45 44/7/45 31/6/45
f 3/4/46 37/3/46 39/75/46 7/28/46
f 7/24/47 39/70/47 36/69/47 1/21/47
f 52/2/48 16/1/48 18/46/48 56/94/48
f 56/90/49 18/41/49 15/16/49 50/15/49
f 8/31/50 29/59/50 35/62/50 11/32/50
f 11/37/51 35/66/51 31/6/51 9/5/51
f 24/8/52 44/7/52 46/84/52 28/56/52
f 28/52/53 46/79/53 43/14/53 22/13/53
f 1/21/54 36/69/54 29/59/54 8/31/54
